<svg width="308" height="308" viewBox="0 0 308 308" fill="none" xmlns="http://www.w3.org/2000/svg">
    <g clip-path="url(#clip0_4131_447)">
        <mask id="mask0_4131_447" style="mask-type:luminance" maskUnits="userSpaceOnUse" x="0" y="0" width="308" height="308">
            <path d="M308 0H0V308H308V0Z" fill="white"/>
        </mask>
        <g mask="url(#mask0_4131_447)">
            <path d="M99.7694 123.491L63.8719 153.501L99.7694 183.511C100.96 184.49 101.945 185.696 102.669 187.059C103.393 188.422 103.841 189.915 103.987 191.452C104.133 192.99 103.973 194.541 103.519 196.016C103.064 197.492 102.323 198.862 101.338 200.049C100.353 201.235 99.1432 202.214 97.779 202.93C96.4148 203.645 94.923 204.082 93.3896 204.216C91.8562 204.35 90.3115 204.178 88.8446 203.711C87.3777 203.243 86.0177 202.488 84.8429 201.49L38.1975 162.491C36.8838 161.393 35.8268 160.018 35.1014 158.465C34.376 156.911 34 155.217 34 153.501C34 151.786 34.376 150.091 35.1014 148.538C35.8268 146.984 36.8838 145.61 38.1975 144.512L84.8429 105.512C87.2225 103.556 90.2764 102.622 93.3392 102.914C96.402 103.207 99.2255 104.702 101.195 107.074C103.164 109.445 104.119 112.502 103.852 115.577C103.585 118.652 102.118 121.497 99.7694 123.491ZM270.802 144.512L224.157 105.512C222.982 104.515 221.622 103.76 220.155 103.292C218.689 102.824 217.144 102.652 215.61 102.786C214.077 102.92 212.585 103.357 211.221 104.073C209.857 104.788 208.647 105.767 207.662 106.954C206.677 108.14 205.936 109.511 205.481 110.986C205.027 112.462 204.868 114.013 205.013 115.55C205.159 117.088 205.607 118.581 206.331 119.944C207.054 121.307 208.04 122.512 209.231 123.491L245.128 153.501L209.231 183.511C208.04 184.49 207.054 185.696 206.331 187.059C205.607 188.422 205.159 189.915 205.013 191.452C204.868 192.99 205.027 194.541 205.481 196.016C205.936 197.492 206.677 198.862 207.662 200.049C208.647 201.235 209.857 202.214 211.221 202.93C212.585 203.645 214.077 204.082 215.61 204.216C217.144 204.35 218.689 204.178 220.155 203.711C221.622 203.243 222.982 202.488 224.157 201.49L270.802 162.491C272.116 161.393 273.173 160.018 273.899 158.465C274.624 156.911 275 155.217 275 153.501C275 151.786 274.624 150.091 273.899 148.538C273.173 146.984 272.116 145.61 270.802 144.512ZM189.581 56.7045C188.142 56.1793 186.613 55.9437 185.083 56.0113C183.553 56.0789 182.051 56.4483 180.663 57.0984C179.275 57.7484 178.028 58.6665 176.994 59.8C175.96 60.9336 175.158 62.2605 174.635 63.7049L112.441 235.303C111.387 238.218 111.53 241.435 112.838 244.245C114.147 247.055 116.514 249.228 119.419 250.288C120.694 250.761 122.043 251.002 123.403 251C125.797 251 128.134 250.261 130.095 248.883C132.056 247.505 133.547 245.555 134.365 243.298L196.559 71.6998C197.082 70.2556 197.317 68.722 197.25 67.1867C197.182 65.6514 196.814 64.1445 196.166 62.752C195.518 61.3595 194.603 60.1087 193.473 59.071C192.343 58.0334 191.021 57.2293 189.581 56.7045Z" stroke="#16181D" stroke-width="67"/>
            <path d="M99.7694 121.491L63.8719 151.501L99.7694 181.511C100.96 182.49 101.945 183.696 102.669 185.059C103.393 186.422 103.841 187.915 103.987 189.452C104.132 190.99 103.973 192.541 103.519 194.016C103.064 195.492 102.323 196.862 101.338 198.049C100.353 199.235 99.1432 200.214 97.779 200.93C96.4148 201.645 94.923 202.082 93.3896 202.216C91.8562 202.35 90.3115 202.178 88.8446 201.711C87.3777 201.243 86.0177 200.488 84.8429 199.49L38.1975 160.491C36.8838 159.393 35.8268 158.018 35.1014 156.465C34.376 154.911 34 153.217 34 151.501C34 149.786 34.376 148.091 35.1014 146.538C35.8268 144.984 36.8838 143.61 38.1975 142.512L84.8429 103.512C87.2225 101.556 90.2764 100.622 93.3392 100.914C96.402 101.207 99.2255 102.702 101.195 105.074C103.164 107.445 104.119 110.502 103.852 113.577C103.585 116.652 102.118 119.497 99.7694 121.491ZM270.802 142.512L224.157 103.512C222.982 102.515 221.622 101.76 220.155 101.292C218.689 100.824 217.144 100.652 215.61 100.786C214.077 100.92 212.585 101.357 211.221 102.073C209.857 102.788 208.647 103.767 207.662 104.954C206.677 106.14 205.936 107.511 205.481 108.986C205.027 110.462 204.868 112.013 205.013 113.55C205.159 115.088 205.607 116.581 206.331 117.944C207.054 119.307 208.04 120.512 209.231 121.491L245.128 151.501L209.231 181.511C208.04 182.49 207.054 183.696 206.331 185.059C205.607 186.422 205.159 187.915 205.013 189.452C204.868 190.99 205.027 192.541 205.481 194.016C205.936 195.492 206.677 196.862 207.662 198.049C208.647 199.235 209.857 200.214 211.221 200.93C212.585 201.645 214.077 202.082 215.61 202.216C217.144 202.35 218.689 202.178 220.155 201.711C221.622 201.243 222.982 200.488 224.157 199.49L270.802 160.491C272.116 159.393 273.173 158.018 273.899 156.465C274.624 154.911 275 153.217 275 151.501C275 149.786 274.624 148.091 273.899 146.538C273.173 144.984 272.116 143.61 270.802 142.512ZM189.581 54.7045C188.142 54.1793 186.613 53.9437 185.083 54.0113C183.553 54.0789 182.051 54.4483 180.663 55.0984C179.275 55.7484 178.028 56.6665 176.994 57.8C175.96 58.9336 175.158 60.2605 174.635 61.7049L112.441 233.303C111.387 236.218 111.53 239.435 112.838 242.245C114.147 245.055 116.514 247.228 119.419 248.288C120.694 248.761 122.043 249.002 123.403 249C125.797 249 128.134 248.261 130.095 246.883C132.056 245.505 133.547 243.555 134.365 241.298L196.559 69.6998C197.082 68.2556 197.317 66.722 197.25 65.1867C197.182 63.6514 196.814 62.1445 196.166 60.752C195.518 59.3595 194.603 58.1087 193.473 57.071C192.343 56.0334 191.021 55.2293 189.581 54.7045Z" fill="#82BC4F"/>
        </g>
    </g>
    <defs>
        <clipPath id="clip0_4131_447">
            <rect width="308" height="308" fill="white"/>
        </clipPath>
    </defs>
</svg>
